<?xml version="1.0" encoding="utf-8"?>
<!-- Generator: Adobe Illustrator 15.1.0, SVG Export Plug-In . SVG Version: 6.00 Build 0)  -->
<!DOCTYPE svg PUBLIC "-//W3C//DTD SVG 1.1//EN" "http://www.w3.org/Graphics/SVG/1.1/DTD/svg11.dtd">
<svg version="1.1" xmlns="http://www.w3.org/2000/svg" xmlns:xlink="http://www.w3.org/1999/xlink" x="0px" y="0px" width="430px"
	 height="140px" viewBox="0 0 430 140" enable-background="new 0 0 430 140" xml:space="preserve">
<g id="by_hkdc_1_" enable-background="new    ">
	<g id="Layer_1_xA0_Image_1_">
		<g opacity="0.6">
			<path fill="#FFFFFF" d="M61.438,96.379v15.355h14.881V96.379h9.012v39.957h-9.012v-16.717H61.438v16.717h-9.011V96.379H61.438z"
				/>
			<path fill="#FFFFFF" d="M126.83,115.943c0,13.162-7.885,21.045-19.622,21.045c-11.798,0-18.794-8.951-18.794-20.391
				c0-11.979,7.708-20.928,19.445-20.928C120.13,95.67,126.83,104.857,126.83,115.943z M97.959,116.416
				c0,7.887,3.675,13.398,9.722,13.398c6.105,0,9.602-5.807,9.602-13.574c0-7.23-3.379-13.396-9.602-13.396
				C101.516,102.842,97.959,108.652,97.959,116.416z"/>
			<path fill="#FFFFFF" d="M129.793,136.336V96.379h10.554l8.299,14.645c2.371,4.207,4.684,9.188,6.521,13.693h0.118
				c-0.534-5.275-0.711-10.67-0.711-16.717V96.379h8.3v39.957h-9.484l-8.538-15.412c-2.371-4.27-5.04-9.428-6.937-14.111h-0.236
				c0.296,5.338,0.416,10.969,0.416,17.49v12.033H129.793z"/>
			<path fill="#FFFFFF" d="M201.113,134.498c-2.787,0.947-8.063,2.254-13.339,2.254c-7.293,0-12.569-1.84-16.245-5.336
				c-3.617-3.5-5.632-8.715-5.632-14.582c0.06-13.281,9.722-20.869,22.824-20.869c5.156,0,9.128,1.008,11.086,1.896l-1.897,7.293
				c-2.193-1.01-4.862-1.723-9.25-1.723c-7.529,0-13.278,4.211-13.278,12.924c0,8.303,5.216,13.105,12.626,13.105
				c2.015,0,3.677-0.238,4.388-0.535v-8.418h-6.165v-7.055h14.881v21.045H201.113z"/>
			<path fill="#FFFFFF" d="M205.203,96.379h8.951v17.668h0.118c0.887-1.541,1.836-2.963,2.787-4.387l9.011-13.281h11.147
				l-13.222,17.016l13.873,22.941h-10.493l-9.842-17.252l-3.379,4.209v13.043h-8.951V96.379z"/>
			<path fill="#FFFFFF" d="M247.71,96.379v39.957h-9.013V96.379H247.71z"/>
			<path fill="#FFFFFF" d="M261.88,126.08l-2.848,10.256h-9.307l12.154-39.957h11.854l12.449,39.957h-9.781l-3.082-10.256H261.88z
				 M272.016,119.322l-2.49-8.479c-0.712-2.371-1.42-5.336-2.016-7.705h-0.117c-0.592,2.369-1.183,5.393-1.838,7.705l-2.37,8.479
				H272.016z"/>
			<path fill="#FFFFFF" d="M291.342,103.969h-10.788v-7.59h30.708v7.59h-10.907v32.367h-9.013V103.969L291.342,103.969z"/>
			<path fill="#FFFFFF" d="M307.23,131.537c0-3.264,2.192-5.516,5.335-5.516c3.082,0,5.215,2.195,5.274,5.516
				c0,3.141-2.136,5.451-5.395,5.451C309.423,136.988,307.23,134.678,307.23,131.537z"/>
			<path fill="#FFFFFF" d="M349.085,135.094c-1.839,0.947-5.693,1.895-10.555,1.895c-11.263,0-19.684-7.113-19.684-20.273
				c0-12.568,8.481-20.986,20.87-20.986c4.921,0,8.125,1.066,9.484,1.777l-1.304,4.209c-1.895-0.947-4.684-1.66-8.002-1.66
				c-9.369,0-15.593,5.988-15.593,16.482c0,9.84,5.629,16.062,15.294,16.062c3.202,0,6.406-0.65,8.479-1.658L349.085,135.094z"/>
			<path fill="#FFFFFF" d="M385.542,115.943c0,13.695-8.357,21.045-18.557,21.045c-10.61,0-17.961-8.24-17.961-20.334
				c0-12.686,7.826-20.984,18.496-20.984C378.488,95.67,385.542,104.027,385.542,115.943z M354.477,116.537
				c0,8.594,4.627,16.244,12.807,16.244s12.807-7.531,12.807-16.602c0-8.004-4.148-16.303-12.747-16.303
				C358.748,99.877,354.477,107.822,354.477,116.537z"/>
			<path fill="#FFFFFF" d="M422.953,118.787c-0.298-5.572-0.652-12.33-0.652-17.25h-0.117c-1.424,4.623-3.025,9.66-5.041,15.176
				l-7.054,19.387h-3.914l-6.519-19.031c-1.898-5.689-3.44-10.789-4.566-15.531h-0.117c-0.12,4.98-0.418,11.621-0.772,17.668
				l-1.069,17.131h-4.921l2.788-39.957h6.578l6.819,19.328c1.658,4.92,2.966,9.307,4.032,13.457h0.116
				c1.067-4.033,2.491-8.418,4.273-13.457l7.113-19.328h6.579l2.49,39.957h-5.102L422.953,118.787z"/>
		</g>
	</g>
	<g id="by_xA0_Image_1_">
		<g>
			<g>
			</g>
		</g>
		<g opacity="0.6">
			<path fill="#FFFFFF" d="M11.678,97.691l-2.56,12.559h0.08c1.72-2.6,4.199-3.959,6.799-3.959c4.239,0,5.839,3.52,5.839,6.959
				c0,5.959-4.279,13.277-12.038,13.277c-3.399,0-5.959-1.4-5.959-4.959c0-0.961,0.16-2.119,0.36-3.039l4.159-20.838H11.678z
				 M7.479,118.609c-0.16,0.68-0.28,1.439-0.24,2.479c0,1.84,1.08,2.84,3.119,2.84c5,0,8.039-5.959,8.039-10.277
				c0-2.4-1.04-4.6-3.68-4.6c-2.879,0-5.839,2.959-6.799,7.518L7.479,118.609z"/>
			<path fill="#FFFFFF" d="M28.079,106.73l1.92,10.398c0.44,2.24,0.68,3.68,0.88,5.119h0.08c0.52-1.24,1.08-2.6,2.08-4.76
				l4.959-10.758h3.52l-7.279,14.717c-2.08,4.16-4.04,7.561-6.679,10.16c-2.16,2.199-4.52,3.119-5.599,3.359l-0.84-2.881
				c0.84-0.279,2.24-0.799,3.559-1.84c1.32-1,2.72-2.559,3.76-4.479c0.16-0.32,0.16-0.52,0.08-0.881L24.64,106.73H28.079z"/>
		</g>
	</g>
</g>
<g id="DEMO">
	<g>
		<path fill="#FFFFFF" d="M28.471,72.978H1V2.064h27.471c17.462,0,23.957,8.838,23.957,18.42v34.072
			C52.428,64.034,45.933,72.978,28.471,72.978z M36.457,24.851c0-5.537-1.917-8.625-9.902-8.625h-9.583v42.59h9.583
			c7.986,0,9.902-3.088,9.902-8.625V24.851z"/>
		<path fill="#FFFFFF" d="M64.67,72.978V2.064h44.613v14.162H80.641v12.99h26.406v14.162H80.641v15.439h28.642v14.161H64.67z"/>
		<path fill="#FFFFFF" d="M136.965,33.582L135.9,72.978h-15.439l2.981-70.913h15.972l17.036,45.146l17.036-45.146h15.971
			l2.981,70.913H177l-1.065-39.396l-12.351,30.239h-14.268L136.965,33.582z"/>
		<path fill="#FFFFFF" d="M258.559,52.321c0,10.754-7.453,21.721-27.471,21.721s-27.471-10.967-27.471-21.721V22.721
			C203.617,11.967,211.07,1,231.088,1s27.471,10.967,27.471,21.721V52.321z M242.587,24.105c0-5.537-3.514-8.944-11.499-8.944
			c-7.986,0-11.5,3.407-11.5,8.944v26.832c0,5.537,3.514,8.944,11.5,8.944c7.985,0,11.499-3.407,11.499-8.944V24.105z"/>
	</g>
</g>
</svg>
